# xmcd
#
# Track frame offsets: 
#        150
#        23097
#        35090
#        45155
#        62705
#        81657
#        97660
#        114602
#        127730
#        143377
#        155927
#        175535
#
# Disc length: 2555 seconds
#
# Revision: 0
# Processed by: cddbd v1.5.2PL0 Copyright (c) Steve Scherf et al.
# Submitted via: ExactAudioCopy v0.95b3
#
DISCID=8f09f90c
DTITLE=The Rascals  - See - The Complete Atlantic Discography (1965-19
DTITLE=71) - Disc 07
DYEAR=1900
DGENRE=
TTITLE0=See
TTITLE1=I'd Like to Take You Home
TTITLE2=Remember Me
TTITLE3=I'm Blue
TTITLE4=Stop and Think
TTITLE5=Temptation's 'bout to Get Me
TTITLE6=Nubia
TTITLE7=Carry Me Back
TTITLE8=Away Away
TTITLE9=Real Thing
TTITLE10=Death's Reply
TTITLE11=Hold On
EXTD=
EXTT0=
EXTT1=
EXTT2=
EXTT3=
EXTT4=
EXTT5=
EXTT6=
EXTT7=
EXTT8=
EXTT9=
EXTT10=
EXTT11=
PLAYORDER=
